HIERARCHY
ROOT Hips
{
	OFFSET 0.000000 83.214638 0.000000
	CHANNELS 6 Xposition Yposition Zposition Xrotation Yrotation Zrotation
	JOINT Pelvis
	{
		OFFSET 0.000000 0.000000 0.000000
		CHANNELS 3 Xrotation Yrotation Zrotation
		JOINT LeftUpLeg
		{
			OFFSET 8.479700 -4.795502 -0.379100
			CHANNELS 3 Xrotation Yrotation Zrotation
			JOINT LeftLeg
			{
				OFFSET 0.024144 -32.555107 0.112900
				CHANNELS 3 Xrotation Yrotation Zrotation
				JOINT LeftFoot
				{
					OFFSET -0.024144 -32.638630 -3.012600
					CHANNELS 3 Xrotation Yrotation Zrotation
					JOINT LeftToeBase
					{
						OFFSET 0.970200 -13.225400 11.864200
						CHANNELS 3 Xrotation Yrotation Zrotation
						End Site
						{
							OFFSET 0.000000 12.319262 0.000000
						}
					}
					JOINT LFootTongue
					{
						OFFSET 1.142400 -1.059800 6.665200
						CHANNELS 3 Xrotation Yrotation Zrotation
						End Site
						{
							OFFSET 0.000000 12.319262 0.000000
						}
					}
				}
				JOINT LeftPantLeg
				{
					OFFSET 0.918482 -16.533964 -2.284700
					CHANNELS 3 Xrotation Yrotation Zrotation
					End Site
					{
						OFFSET 0.350399 24.744368 0.000000
					}
				}
			}
		}
		JOINT RightUpLeg
		{
			OFFSET -8.479700 -4.795502 -0.379100
			CHANNELS 3 Xrotation Yrotation Zrotation
			JOINT RightLeg
			{
				OFFSET -0.023144 -32.555092 0.112900
				CHANNELS 3 Xrotation Yrotation Zrotation
				JOINT RightFoot
				{
					OFFSET 0.023144 -32.638641 -3.012700
					CHANNELS 3 Xrotation Yrotation Zrotation
					JOINT RightToeBase
					{
						OFFSET -0.970200 -13.225400 11.864200
						CHANNELS 3 Xrotation Yrotation Zrotation
						End Site
						{
							OFFSET 0.000000 12.319244 0.000000
						}
					}
					JOINT RFootTongue
					{
						OFFSET -1.142200 -1.059800 6.665200
						CHANNELS 3 Xrotation Yrotation Zrotation
						End Site
						{
							OFFSET 0.000000 12.319243 0.000000
						}
					}
				}
				JOINT RightPantLeg
				{
					OFFSET -0.919482 -16.533978 -2.284800
					CHANNELS 3 Xrotation Yrotation Zrotation
					End Site
					{
						OFFSET -0.350400 24.744419 0.000000
					}
				}
			}
		}
	}
	JOINT Spine
	{
		OFFSET 0.000000 7.722000 1.166200
		CHANNELS 3 Xrotation Yrotation Zrotation
		JOINT Spine1
		{
			OFFSET 0.000000 12.024101 0.248800
			CHANNELS 3 Xrotation Yrotation Zrotation
			JOINT Spine2
			{
				OFFSET 0.000000 11.502998 -0.491200
				CHANNELS 3 Xrotation Yrotation Zrotation
				JOINT Neck
				{
					OFFSET 0.000000 18.430702 -3.123100
					CHANNELS 3 Xrotation Yrotation Zrotation
					JOINT Head
					{
						OFFSET 0.000000 9.051102 1.034000
						CHANNELS 3 Xrotation Yrotation Zrotation
						JOINT HairB
						{
							OFFSET 0.208400 24.786102 24.822300
							CHANNELS 3 Xrotation Yrotation Zrotation
							End Site
							{
								OFFSET 0.000000 32.263779 0.000000
							}
						}
						JOINT HairA
						{
							OFFSET -7.081100 24.428299 23.196600
							CHANNELS 3 Xrotation Yrotation Zrotation
							End Site
							{
								OFFSET 0.000000 32.263779 0.000000
							}
						}
						JOINT Hat
						{
							OFFSET 16.728800 15.048294 -15.439601
							CHANNELS 3 Xrotation Yrotation Zrotation
							End Site
							{
								OFFSET 0.000000 32.263779 0.000000
							}
						}
					}
				}
				JOINT LeftShoulder
				{
					OFFSET 6.197800 13.665199 -4.064700
					CHANNELS 3 Xrotation Yrotation Zrotation
					JOINT LeftArm
					{
						OFFSET 7.778100 -0.187103 -1.709300
						CHANNELS 3 Xrotation Yrotation Zrotation
						JOINT LeftForeArm
						{
							OFFSET 22.049376 0.000000 0.000000
							CHANNELS 3 Xrotation Yrotation Zrotation
							JOINT LeftHand
							{
								OFFSET 23.009392 0.000000 0.000000
								CHANNELS 3 Xrotation Yrotation Zrotation
								JOINT LeftHandThumb1
								{
									OFFSET 3.507191 -2.063065 3.133727
									CHANNELS 3 Xrotation Yrotation Zrotation
									JOINT LeftHandThumb2
									{
										OFFSET 3.101337 -1.790558 1.790558
										CHANNELS 3 Xrotation Yrotation Zrotation
										JOINT LeftHandThumb3
										{
											OFFSET 3.058640 -1.765907 1.765906
											CHANNELS 3 Xrotation Yrotation Zrotation
											End Site
											{
												OFFSET -0.415260 3.926476 -0.049563
											}
										}
									}
								}
								JOINT LeftHandIndex1
								{
									OFFSET 11.334419 -0.901459 3.706815
									CHANNELS 3 Xrotation Yrotation Zrotation
									JOINT LeftHandIndex2
									{
										OFFSET 3.283112 0.000000 0.000000
										CHANNELS 3 Xrotation Yrotation Zrotation
										JOINT LeftHandIndex3
										{
											OFFSET 3.323853 0.000000 0.000000
											CHANNELS 3 Xrotation Yrotation Zrotation
											End Site
											{
												OFFSET -1.135597 3.097809 0.402452
											}
										}
									}
								}
								JOINT LeftHandMiddle1
								{
									OFFSET 11.335861 0.000000 0.000000
									CHANNELS 3 Xrotation Yrotation Zrotation
									JOINT LeftHandMiddle2
									{
										OFFSET 3.410492 0.000000 0.000000
										CHANNELS 3 Xrotation Yrotation Zrotation
										JOINT LeftHandMiddle3
										{
											OFFSET 3.312172 0.000000 0.000000
											CHANNELS 3 Xrotation Yrotation Zrotation
											End Site
											{
												OFFSET -1.150200 3.080154 0.400270
											}
										}
									}
								}
								JOINT LeftHandRing1
								{
									OFFSET 11.514786 -0.013176 -3.003090
									CHANNELS 3 Xrotation Yrotation Zrotation
									JOINT LeftHandRing2
									{
										OFFSET 3.053307 0.000000 0.000000
										CHANNELS 3 Xrotation Yrotation Zrotation
										JOINT LeftHandRing3
										{
											OFFSET 3.295807 0.000000 0.000000
											CHANNELS 3 Xrotation Yrotation Zrotation
											End Site
											{
												OFFSET -1.281006 3.013344 0.375733
											}
										}
									}
								}
								JOINT LeftHandPinky1
								{
									OFFSET 10.518692 -0.960396 -5.730441
									CHANNELS 3 Xrotation Yrotation Zrotation
									JOINT LeftHandPinky2
									{
										OFFSET 2.861649 0.000000 0.000000
										CHANNELS 3 Xrotation Yrotation Zrotation
										JOINT LeftHandPinky3
										{
											OFFSET 2.863380 0.000000 0.000000
											CHANNELS 3 Xrotation Yrotation Zrotation
											End Site
											{
												OFFSET -0.843597 2.711159 0.369971
											}
										}
									}
								}
							}
							JOINT LSleeve
							{
								OFFSET 6.676277 -0.344902 -1.011730
								CHANNELS 3 Xrotation Yrotation Zrotation
								End Site
								{
									OFFSET 0.000000 14.885353 0.000000
								}
							}
						}
					}
				}
				JOINT RightShoulder
				{
					OFFSET -6.197800 13.665199 -4.064700
					CHANNELS 3 Xrotation Yrotation Zrotation
					JOINT RightArm
					{
						OFFSET -7.778100 -0.187103 -1.709300
						CHANNELS 3 Xrotation Yrotation Zrotation
						JOINT RightForeArm
						{
							OFFSET -22.049376 0.000000 0.000000
							CHANNELS 3 Xrotation Yrotation Zrotation
							JOINT RightHand
							{
								OFFSET -23.009392 0.000000 0.000000
								CHANNELS 3 Xrotation Yrotation Zrotation
								JOINT RightHandThumb1
								{
									OFFSET -3.507191 -2.063065 3.133727
									CHANNELS 3 Xrotation Yrotation Zrotation
									JOINT RightHandThumb2
									{
										OFFSET -3.101337 -1.790558 1.790558
										CHANNELS 3 Xrotation Yrotation Zrotation
										JOINT RightHandThumb3
										{
											OFFSET -3.058640 -1.765907 1.765906
											CHANNELS 3 Xrotation Yrotation Zrotation
											End Site
											{
												OFFSET 0.415260 3.926476 -0.049563
											}
										}
									}
								}
								JOINT RightHandIndex1
								{
									OFFSET -11.334419 -0.901459 3.706815
									CHANNELS 3 Xrotation Yrotation Zrotation
									JOINT RightHandIndex2
									{
										OFFSET -3.283112 0.000000 0.000000
										CHANNELS 3 Xrotation Yrotation Zrotation
										JOINT RightHandIndex3
										{
											OFFSET -3.323853 0.000000 0.000000
											CHANNELS 3 Xrotation Yrotation Zrotation
											End Site
											{
												OFFSET 1.135597 3.097809 0.402452
											}
										}
									}
								}
								JOINT RightHandMiddle1
								{
									OFFSET -11.335861 0.000000 0.000000
									CHANNELS 3 Xrotation Yrotation Zrotation
									JOINT RightHandMiddle2
									{
										OFFSET -3.410492 0.000000 0.000000
										CHANNELS 3 Xrotation Yrotation Zrotation
										JOINT RightHandMiddle3
										{
											OFFSET -3.312172 0.000000 0.000000
											CHANNELS 3 Xrotation Yrotation Zrotation
											End Site
											{
												OFFSET 1.150200 3.080154 0.400270
											}
										}
									}
								}
								JOINT RightHandRing1
								{
									OFFSET -11.514786 -0.013176 -3.003090
									CHANNELS 3 Xrotation Yrotation Zrotation
									JOINT RightHandRing2
									{
										OFFSET -3.053307 0.000000 0.000000
										CHANNELS 3 Xrotation Yrotation Zrotation
										JOINT RightHandRing3
										{
											OFFSET -3.295807 0.000000 0.000000
											CHANNELS 3 Xrotation Yrotation Zrotation
											End Site
											{
												OFFSET 1.281006 3.013344 0.375733
											}
										}
									}
								}
								JOINT RightHandPinky1
								{
									OFFSET -10.518692 -0.960396 -5.730441
									CHANNELS 3 Xrotation Yrotation Zrotation
									JOINT RightHandPinky2
									{
										OFFSET -2.861649 0.000000 0.000000
										CHANNELS 3 Xrotation Yrotation Zrotation
										JOINT RightHandPinky3
										{
											OFFSET -2.863380 0.000000 0.000000
											CHANNELS 3 Xrotation Yrotation Zrotation
											End Site
											{
												OFFSET 0.843597 2.711159 0.369971
											}
										}
									}
								}
							}
							JOINT RSleeve
							{
								OFFSET -6.676277 -0.344902 -1.011730
								CHANNELS 3 Xrotation Yrotation Zrotation
								End Site
								{
									OFFSET 0.000000 14.885353 0.000000
								}
							}
						}
					}
				}
				JOINT Backpack
				{
					OFFSET 0.000000 -2.471497 36.677502
					CHANNELS 3 Xrotation Yrotation Zrotation
					End Site
					{
						OFFSET 0.000000 20.427315 0.000000
					}
				}
				JOINT Hood
				{
					OFFSET 0.000000 18.754097 -10.431000
					CHANNELS 3 Xrotation Yrotation Zrotation
					JOINT Hood1
					{
						OFFSET 0.000000 -5.011002 -7.685901
						CHANNELS 3 Xrotation Yrotation Zrotation
						End Site
						{
							OFFSET 0.000000 9.175140 0.000000
						}
					}
				}
				JOINT LHoodieString
				{
					OFFSET 5.250500 16.397697 3.089900
					CHANNELS 3 Xrotation Yrotation Zrotation
					JOINT LHoodieString1
					{
						OFFSET 0.257700 -6.364304 3.694600
						CHANNELS 3 Xrotation Yrotation Zrotation
						JOINT LHoodieString2
						{
							OFFSET 0.000000 -9.643799 2.679100
							CHANNELS 3 Xrotation Yrotation Zrotation
							End Site
							{
								OFFSET 0.000000 10.009018 0.000000
							}
						}
					}
				}
				JOINT RHoodieString
				{
					OFFSET -5.250500 16.397697 3.089900
					CHANNELS 3 Xrotation Yrotation Zrotation
					JOINT RHoodieString1
					{
						OFFSET -0.257700 -6.364304 3.694600
						CHANNELS 3 Xrotation Yrotation Zrotation
						JOINT RHoodieString2
						{
							OFFSET 0.000000 -9.643799 2.679100
							CHANNELS 3 Xrotation Yrotation Zrotation
							End Site
							{
								OFFSET 0.000000 10.009018 0.000000
							}
						}
					}
				}
			}
			JOINT LBackpack_Strap
			{
				OFFSET 15.223200 -7.719803 -6.610900
				CHANNELS 3 Xrotation Yrotation Zrotation
				End Site
				{
					OFFSET 0.000000 16.040596 0.000000
				}
			}
			JOINT RBackpack_Strap
			{
				OFFSET -15.223000 -7.719803 -6.610900
				CHANNELS 3 Xrotation Yrotation Zrotation
				End Site
				{
					OFFSET 0.000000 16.040596 0.000000
				}
			}
		}
	}
	JOINT BoyFacialAnim_Joint
	{
		OFFSET 1.000000 -82.208099 -1.550900
		CHANNELS 3 Xrotation Yrotation Zrotation
		End Site
		{
			OFFSET 0.000000 30.012791 0.000000
		}
	}
}
MOTION
Frames: 4
Frame Time: 0.016667
5.275661 78.405518 -5.368528 7.546772 -32.824479 -19.884204 0.000000 -0.000000 0.000001 -36.432789 -9.785489 26.976461 48.965961 5.407000 8.624336 -10.209521 29.641570 -11.642370 0.000000 -0.000000 -0.000000 0.000000 -0.000000 -0.000000 -0.000000 -0.000001 0.000001 -25.654655 4.137328 26.363490 16.735750 -0.342253 7.134001 3.560393 12.873837 -8.326060 0.000000 0.000000 -0.000000 0.000000 0.000000 -0.000000 -0.000000 0.000000 0.000000 19.996326 -5.389683 14.489476 14.882796 -0.853704 11.261198 15.131231 -0.648044 9.675234 -9.983881 -2.860071 5.479614 44.315220 -21.168846 34.786379 -0.000000 -0.000001 0.000000 -0.000000 -0.000001 0.000000 -0.000000 -0.000001 0.000000 1.428806 -22.224462 -11.600556 -29.377108 -24.713938 -57.022838 -0.000002 -6.918358 -0.000004 -21.663622 1.158961 -14.566425 18.491276 -0.461418 10.916068 1.284087 32.757608 -3.088992 -0.000000 -0.000002 0.000000 0.339565 4.671355 -7.844272 0.387033 2.823582 -20.566222 0.000001 -0.000001 0.000001 0.912570 8.769275 -15.831755 0.919078 3.991137 -33.400414 -0.000001 0.000000 -0.000003 2.555834 11.673026 -26.909200 1.710649 3.886784 -40.215474 -0.000003 -0.000001 -0.000000 5.576090 16.029160 -36.940634 1.378695 4.077654 -45.645639 -0.000002 0.000001 -0.000000 -0.000000 0.000000 -0.000000 2.724539 8.294344 13.453002 6.429284 49.813823 20.457863 0.000000 22.722607 0.000016 -0.688165 13.861791 2.493876 18.491270 0.461416 -10.916077 1.284079 -32.757598 3.088973 0.000002 0.000003 -0.000001 0.339560 -4.671355 7.844270 0.387036 -2.823587 20.566285 -0.000002 -0.000000 0.000004 0.912569 -8.769269 15.831752 0.919076 -3.991135 33.400431 0.000001 0.000000 0.000002 2.555826 -11.673022 26.909192 1.710647 -3.886785 40.215467 -0.000001 0.000001 0.000001 5.576088 -16.029160 36.940634 1.378692 -4.077650 45.645635 0.000001 0.000001 0.000000 0.000001 -0.000000 -0.000001 -0.000001 -0.000001 0.000002 -0.000001 -0.000001 0.000002 -0.000001 -0.000001 0.000002 -0.000001 -0.000001 0.000002 -0.000001 -0.000001 0.000002 -0.000001 -0.000001 0.000000 -0.000001 -0.000001 0.000002 -0.000001 -0.000001 0.000002 -0.000001 -0.000001 0.000000 -0.000003 -0.000003 0.000003 -0.000003 -0.000003 0.000003 0.000000 -0.000000 0.000001 
5.215420 78.403465 -5.370167 7.553587 -32.695316 -19.864043 -0.000000 -0.000001 -0.000001 -36.468736 -9.734969 27.013811 48.936588 5.382404 8.623968 -10.219311 29.463469 -11.646280 0.000000 0.000000 -0.000000 0.000000 0.000000 0.000000 0.000001 0.000001 0.000000 -25.658555 4.126078 26.385610 16.785596 -0.323666 7.118892 3.497775 12.731097 -8.355449 0.000000 -0.000000 -0.000000 0.000000 -0.000000 -0.000000 0.000000 0.000001 0.000000 19.923132 -5.425904 14.558712 14.845367 -0.865566 11.290745 15.093031 -0.659118 9.704715 -9.957542 -2.861783 5.471382 44.377853 -21.263535 34.788916 -0.000000 0.000001 -0.000000 -0.000000 0.000001 -0.000000 -0.000000 0.000001 -0.000000 1.421037 -22.263294 -11.624772 -29.239483 -24.946665 -57.154019 0.000006 -6.919567 -0.000000 -22.087466 0.509894 -14.614100 18.491277 -0.461417 10.916070 1.284088 32.757601 -3.088991 -0.000000 -0.000000 0.000000 0.339562 4.671353 -7.844269 0.387032 2.823582 -20.566224 -0.000001 0.000000 -0.000002 0.912572 8.769270 -15.831752 0.919076 3.991137 -33.400424 -0.000000 0.000000 -0.000002 2.555833 11.673023 -26.909197 1.710646 3.886783 -40.215474 -0.000003 0.000000 -0.000002 5.576092 16.029161 -36.940638 1.378696 4.077656 -45.645639 -0.000000 -0.000000 -0.000000 0.000001 0.000000 -0.000000 2.805136 8.300648 13.088439 6.473855 49.476313 20.586795 -0.000003 23.126213 0.000006 -0.900180 13.002781 2.887912 18.491279 0.461416 -10.916076 1.284080 -32.757594 3.088970 0.000002 -0.000000 0.000001 0.339562 -4.671356 7.844270 0.387037 -2.823586 20.566284 -0.000001 -0.000001 0.000002 0.912572 -8.769270 15.831754 0.919074 -3.991136 33.400431 0.000001 0.000000 -0.000002 2.555833 -11.673021 26.909188 1.710646 -3.886784 40.215467 -0.000001 0.000000 0.000002 5.576093 -16.029156 36.940638 1.378692 -4.077651 45.645632 -0.000000 -0.000001 0.000002 0.000000 -0.000000 -0.000000 0.000002 -0.000000 -0.000000 0.000002 -0.000000 -0.000000 0.000002 -0.000000 -0.000000 0.000002 -0.000000 -0.000000 0.000002 -0.000000 -0.000000 0.000003 0.000000 0.000000 0.000002 -0.000000 -0.000000 0.000002 -0.000000 -0.000000 0.000003 0.000000 0.000000 -0.000001 -0.000001 0.000000 -0.000001 -0.000001 0.000000 -0.000000 -0.000001 -0.000001 
5.153551 78.403831 -5.369539 7.557388 -32.546207 -19.838583 0.000000 -0.000001 -0.000000 -36.491696 -9.692202 27.035624 48.891245 5.385617 8.623980 -10.221060 29.254752 -11.656727 0.000000 0.000000 -0.000000 0.000000 0.000000 -0.000000 -0.000001 -0.000002 0.000003 -25.654136 4.118019 26.403268 16.831668 -0.301014 7.094614 3.429012 12.567387 -8.378933 -0.000000 0.000000 -0.000000 -0.000000 0.000000 -0.000000 0.000000 -0.000001 0.000000 19.852464 -5.461267 14.628431 14.807946 -0.877134 11.320872 15.054852 -0.669729 9.734741 -9.932007 -2.864888 5.463861 44.440185 -21.362284 34.797611 -0.000000 -0.000001 0.000001 -0.000000 -0.000001 0.000001 -0.000000 -0.000001 0.000001 1.413662 -22.300072 -11.647840 -29.076754 -25.170173 -57.285353 0.000011 -6.920588 -0.000001 -22.500221 -0.128296 -14.674317 18.491276 -0.461417 10.916069 1.284087 32.757604 -3.088991 -0.000000 0.000004 -0.000001 0.339561 4.671353 -7.844271 0.387031 2.823581 -20.566222 -0.000000 0.000000 -0.000002 0.912571 8.769273 -15.831759 0.919073 3.991137 -33.400417 0.000002 0.000001 -0.000005 2.555835 11.673021 -26.909197 1.710649 3.886784 -40.215471 -0.000000 0.000001 -0.000004 5.576091 16.029161 -36.940641 1.378696 4.077655 -45.645628 0.000001 0.000001 -0.000002 0.000000 0.000000 0.000000 2.887478 8.303045 12.724779 6.502554 49.145065 20.735537 0.000003 23.528026 -0.000000 -1.075813 12.131586 3.207533 18.491277 0.461416 -10.916074 1.284080 -32.757598 3.088974 0.000002 0.000001 0.000001 0.339560 -4.671354 7.844270 0.387033 -2.823584 20.566278 -0.000000 0.000000 0.000000 0.912570 -8.769270 15.831750 0.919076 -3.991135 33.400431 0.000003 -0.000001 -0.000002 2.555832 -11.673024 26.909187 1.710651 -3.886787 40.215467 -0.000002 -0.000002 0.000004 5.576094 -16.029156 36.940638 1.378693 -4.077652 45.645639 0.000000 0.000001 -0.000001 -0.000000 -0.000000 -0.000000 -0.000002 0.000001 0.000000 -0.000002 0.000001 0.000000 -0.000002 0.000001 0.000000 -0.000002 0.000001 0.000000 -0.000002 0.000001 -0.000001 -0.000000 0.000002 -0.000001 -0.000002 0.000001 0.000000 -0.000002 0.000001 -0.000001 -0.000000 0.000002 -0.000001 -0.000000 0.000003 -0.000001 -0.000000 0.000003 -0.000001 0.000000 -0.000001 -0.000000 
5.090343 78.406822 -5.366293 7.557541 -32.378262 -19.808083 -0.000000 0.000000 0.000002 -36.498909 -9.658531 27.040755 48.829982 5.411341 8.624238 -10.214625 29.028697 -11.673468 -0.000000 0.000000 -0.000000 -0.000000 0.000000 -0.000000 -0.000000 0.000004 -0.000002 -25.638806 4.112709 26.414703 16.871928 -0.279061 7.063345 3.355835 12.390289 -8.397827 -0.000000 0.000000 0.000000 -0.000000 0.000000 0.000000 -0.000000 -0.000000 -0.000001 19.783701 -5.494914 14.698808 14.770568 -0.887982 11.351577 15.016757 -0.679465 9.765326 -9.907235 -2.869377 5.456888 44.501145 -21.464020 34.810619 0.000000 0.000000 -0.000001 0.000000 0.000000 -0.000001 0.000000 0.000000 -0.000001 1.406857 -22.333680 -11.669306 -28.888835 -25.384541 -57.416332 -0.000004 -6.922044 -0.000006 -22.902261 -0.751399 -14.745277 18.491277 -0.461418 10.916066 1.284087 32.757608 -3.088991 0.000000 0.000001 -0.000000 0.339564 4.671354 -7.844272 0.387033 2.823580 -20.566217 0.000002 0.000000 -0.000000 0.912574 8.769274 -15.831757 0.919074 3.991137 -33.400417 0.000000 -0.000000 -0.000002 2.555834 11.673022 -26.909197 1.710648 3.886783 -40.215471 -0.000002 0.000002 -0.000002 5.576089 16.029160 -36.940638 1.378695 4.077657 -45.645639 0.000002 0.000000 -0.000002 -0.000000 -0.000000 -0.000000 2.971374 8.302337 12.360871 6.513137 48.819945 20.906765 -0.000000 23.926617 -0.000009 -1.214035 11.254107 3.455854 18.491276 0.461416 -10.916073 1.284080 -32.757598 3.088971 0.000001 0.000001 -0.000000 0.339559 -4.671358 7.844271 0.387035 -2.823587 20.566284 -0.000004 0.000001 0.000005 0.912569 -8.769272 15.831754 0.919074 -3.991137 33.400428 -0.000001 0.000000 -0.000000 2.555830 -11.673022 26.909187 1.710648 -3.886785 40.215467 -0.000001 -0.000000 0.000000 5.576092 -16.029156 36.940638 1.378694 -4.077653 45.645632 0.000001 0.000000 0.000000 0.000000 -0.000000 -0.000000 -0.000000 -0.000001 0.000002 -0.000000 -0.000001 0.000002 -0.000000 -0.000001 0.000002 -0.000000 -0.000001 0.000002 -0.000000 -0.000001 0.000002 0.000001 -0.000001 0.000002 -0.000000 -0.000001 0.000002 -0.000000 -0.000001 0.000002 0.000001 -0.000001 0.000002 -0.000001 -0.000000 0.000000 -0.000001 -0.000000 0.000000 -0.000000 0.000000 0.000002 
